<?xml version="1.0" encoding="UTF-8"?>
<svg xmlns="http://www.w3.org/2000/svg" viewBox="0 0 800 600">
  <defs>
    <style>
      .cls-1 {
        fill: #f5efed;
      }

      .cls-2 {
        fill: #611408;
      }

      .cls-3 {
        fill: none;
        stroke: #f5efed;
        stroke-miterlimit: 10;
        stroke-width: 5px;
      }
    </style>
  </defs>
  <g id="Linea">
    <path class="cls-3" d="M800,533.35s-82.78,80.62-174.83,2.78c-96.26-81.39-367.41,36.94-460.57,5.09-152.22-52.04,91.96-141.26,230.77-100.96,150.05,43.57,259.34-94.7-10.08-76.3-147.85,10.09-145.07-104.71-31.8-88.32,89.22,12.91,43.17-140.58,43.17-140.58"/>
  </g>
  <g id="Monviso">
    <path class="cls-2" d="M-7.47,300.59c2.7-1.57,5.41-3.13,8.13-4.65,1.93-1.08,3.87-2.16,5.84-3.19.89-.47,1.88-.86,2.73-1.39.94-.58,2.81-.63-.12-.53l-7.28-1.06c1.89,1.58,2.1,5.84,3.9,7.71s5.53,1.86,8.09,1.83c4.01-.03,7.67-2.07,11.35-3.51l-6.18.07,1.16.16-3.44-.83,9.35,7.05c3.27,2.46,5.81,5.04,9.94,5.69,5.5.87,7.23,0,10.57-3.81,2.55-2.91,5.56-8.01,9.01-9.8l-8.36-.3c-.48-.13,1.96,1.49,2.64,1.98l5.2,3.76c3.19,2.31,7.57,2.99,11.49,2.36,5.84-.93,11.79-3.79,17.41-5.64l-8.36-.3c1.23.31,3.36,3.45,4.4,4.56l9.06,9.66c2.49,2.66,4.9,5.45,7.51,8,2.17,2.12,4.42,2.53,7.58,2.69s4.6-.08,6.38-2.31c2.27-2.85,4.5-5.75,6.75-8.62l8.15-10.4c1.38-1.76,2.75-4.4,4.79-5.31l-9.61-.76c2.88,1.8,3.93,6.52,5.93,9.24s7.27,3.4,10.58,2.52c4.1-1.09,7.93-6.35,10.93-9.11,6.48-5.95,12.96-11.9,19.44-17.85,3.21-2.95,7.06-8.13,11.14-9.86l-9.13-.53c2.2.65,4.45,2.99,6.33,4.28,2.66,1.83,5.34,3.63,8.14,5.24,3.69,2.12,10.69,5.2,14.9,3.14,2.64-1.29,4.75-7.24,6.3-9.71s3.23-5.1,4.95-7.59c.62-.9,2.7-4.37,3.29-4.49l-9.1-.91c3.3,2.32,6.32,6.4,9.26,9.22,3.5,3.36,7.76,9.38,12.62,10.53,2.07.49,6.37,1.45,8.36.3,1.3-.74,1.58-2.29,2.08-3.58l2.88-7.36c.66-1.68,1.08-3.98,2.49-5.17l-9.13-.53c2.72.81,4.23,4.52,6.63,5.99,2.6,1.6,8.26,2.08,11.05.67,4.9-2.49,9.49-7.42,13.81-10.79,6.05-4.72,12.09-9.45,18.14-14.17,3.23-2.52,4.28-4.71,6.21-8.45l6.47-12.5c1.18-2.27,2.33-6.18,4.45-7.7l-9.13-.53c4.77,1.59,6.68,8.84,11.74,10.33,2.76.82,7.56,1.67,9.9-.42,2.19-1.95,2.87-5.71,5.42-7.27l-9.13-.53c1.63.48,2.67,1.61,4.42,1.97s3.63.38,5.44.4c.45,0,2.26.11,2.52-.5.56-1.31,4.52-11.13,5.25-11.2l-8.3-1.01c2.6,1.68,3.59,5.28,5.94,7.22s9.11,2.57,11.67.78c4.87-3.41,6.8-11.17,11.93-14.22l-7.36-.1c-2.01-.33-.4.14.64.65.65.32,1.15.58,1.87.8,2.29.7,5.56,1.1,7.89.68,1.79-.32,2.12-.9,3.11-2.13,3.41-4.24,6.45-8.85,9.65-13.24,10.17-13.96,20.34-27.91,30.51-41.87,2.22-3.04,5.1-9.24,8.56-10.91-3.2-.25-6.41-.51-9.61-.76,3.8,2.25,5.58,9.02,8.2,12.57,3.2,4.32,9.54,2.53,13.7,1.18l-9.61-.76c2.4,1.48,4.04,5.34,5.58,7.68,3.09,4.66,6.18,9.33,9.27,13.99,1.73,2.6,3.32,6.15,5.54,8.37,3.29,3.29,8.77,1.31,12.31,1.07l-8.3-1.01c2.29,1.84,3.71,5.88,5.16,8.4,3.02,5.25,6.04,10.51,9.05,15.76,1.98,3.45,3.71,7.46,6.11,10.63s8.85,2.82,12.44,1.83l-5.66-.08.9.1-3.44-.83c2.41,2.95,1.61,8.02,3.71,11.12,2.27,3.36,9.61,2.47,12.77,1.04l-9.61-.76c4.01,1.94,5.18,6.47,6.05,10.39l1.92,8.67c.34,1.54.38,3.72,1.44,4.96,2.73,3.2,9.96,2.66,10.99,7.05.55,2.35-.82,3.69,1.44,5.17,1.8,1.18,4.43,1.03,6.03,2.48,3.27,2.98,3.85,9.41,8.05,11.37,2.37,1.11,5.97.89,8.55,1.12,2.25.2-2.64-1.23-3.02-.06-.11.33.48,1.5.59,1.86l5.13,16.19c1.4,4.4,2.26,9.85,4.42,13.95,1.92,3.64,10.27,3.8,12.87.83,2.01-2.29,3.65-5.05,5.43-7.52,1.41-1.95,2.93-5.16,5.09-6.29l-9.61-.76c1.9.94,3.13,3.34,4.4,5.01,1.79,2.35,3.59,4.68,5.41,7,2.22,2.83,4.83,7.45,7.99,9.39,2.73,1.68,8.49,2.13,10.55-.12,3.07-3.35,4.58-8.43,7.99-11.53,1.17-1.07,2.63-1.07,3.6-2.41.71-.99.98-3.05,1.34-4.17.91-2.81,1.63-5.78,2.85-8.47,1.58-3.49,3.73-6.83,5.57-10.19,1.46-2.68,3-7.59,5.59-9.32l-9.13-.53c3.51,1.38,4.88,6.72,8.25,8.53,2.2,1.18,5.89,1.33,8.3,1.01s3.41-2.44,5.65-3.1l-9.61-.76c1.34.97,1.91,2.66,2.7,4.14l5.45,10.18c5.27,9.84,10.54,19.67,15.8,29.51,5.07,9.47,10.14,18.93,15.21,28.4,2.46,4.6,3.85,10.67,9.55,11.41,2.39.31,6.32,1.02,7.88-1.19,1.27-1.79,1.65-5.42,2.28-7.5,1.07-3.5,2.54-9.44,5.41-11.61l-9.13-.53c2.6.86,5.21,4.93,7.1,6.89,2.5,2.59,4.5,3.27,8.27,3.46,6.17.32,9.34-4.47,13.64-8.37,5.02-4.56,9.86-9.54,15.16-13.76,1.3-1.04,2.69-1.7,4.19-2.48,2.51-1.29,5.77-3.84,8.55-4.23l-9.1-.91c2.67,1.55,3.52,4.88,6.61,5.89s6.46,1.35,9.6,2.01c7.04,1.47,13.33,2.01,20.54,1.64l-7.82-.78c1.35.4,1.76,4.92,2.06,6.02.51,1.91.71,4.63,1.93,6.25,2.57,3.4,8.08,6.04,11.5,8.55,4.05,2.97,8.88,4.7,14.06,3.23,2.1-.59,4.19-1.83,6.19-2.7l4.11-1.79c.49-.21,2.6-.85,1.55-.75-2.77-.34-5.54-.67-8.3-1.01,3.19,1.85,5.83,6.13,8.27,8.83l15.05,16.69c2.44,2.71,4.99,7.06,8.62,8.13,6.43,1.89,12.07-.39,18.21-2.11l-7.84-.46c1.81.47,4.61,4.55,6.07,6.01,1.16,1.16,4.57,1,6.09,1.04.46.01,4.22-.05,3.56-.71-1.64-1.64-3.23-3.36-4.94-4.94-2.05-1.9-4.33-2.27-7.15-2.49-4.88-.38-9.45,1.49-14.1,2.8l7.84.46c-.65-.19-2.14-2.31-2.73-2.97l-6.7-7.43c-5.12-5.68-10.25-11.36-15.37-17.04-4.08-4.53-5.7-6.7-12.53-6.53-5.33.13-10.74,3.72-15.53,5.81l6.18-.07-1.19-.13,3.44.83c-3.44-2.52-6.88-5.05-10.31-7.57-1.19-.87-3.28-1.89-4.19-3.08-1-1.31-1.17-3.59-1.58-5.13-.49-1.84-.71-4.78-1.7-6.41-1.2-1.97-4.03-2.01-6.17-2.18-2.58-.2-5.18.04-7.76.17-.5.03-1.13-.02-1.61.08-1.79.4,5.89.48,5.99.55-.53-.37-1.66-.35-2.29-.48l-8.18-1.71c-1.5-.31-4.31-.35-5.65-1.18,1.09.67-.56-1.19-.62-1.27-.65-.92-1.58-2.11-2.45-2.85-1.99-1.68-4.6-1.85-7.18-1.92-4.8-.13-8.44,2.53-12.59,4.67-2.46,1.27-4.02,2.32-6.05,4.16-4.43,4.03-8.87,8.05-13.3,12.08-2.68,2.43-5.99,6.85-9.45,8.12l9.13.53c-3.29-1.46-5.5-6.16-8.31-8.41-2.55-2.04-9.91-3.53-12.36-.77-1.71,1.93-2.93,5.84-3.84,8.29-1.25,3.38-1.45,8.33-3.76,11.12l1.5-.45-.88.09,8.3,1.01c-2.79-2.26-4.45-7.61-6.12-10.73l-12.54-23.42c-8-14.94-16-29.88-24-44.82-.51-.95-.98-2.44-1.76-3.22-1.96-1.95-6.64-1.93-9.16-1.63s-3.4,2.3-5.65,3.1l9.61.76c-3-1.48-4.59-5.42-7.07-7.62-2.28-2.02-8.4-3.35-11.28-1.9-1.91.96-2.8,3.88-3.74,5.62-2.06,3.78-4.13,7.55-6.19,11.33-.83,1.53-1.65,2.97-2.26,4.58-1.2,3.19-1.58,7.46-3.34,10.36-.81,1.33-1.69,1.19-2.83,2.1s-1.96,2.29-2.84,3.5c-2.2,3.04-4.06,7.09-6.55,9.81l7.55-.1c2.34.47,1.78.88.79-.57-.63-.92-1.54-1.74-2.26-2.59-1.94-2.31-3.8-4.69-5.65-7.07-3.2-4.1-6.13-10.55-11.6-11.42-2.38-.38-5.91-.96-7.92.68-1.05.86-1.91,2.65-2.69,3.72-2.3,3.19-4.9,8.77-8.22,10.91l7.36.1c1.71.28.65-1.16.29-2.28l-1.86-5.87-4.91-15.49c-.84-2.64-1.32-6.65-2.84-8.97-1.87-2.86-7.95-2.29-11.06-2.57l4.76.97c-2.72-1.67-4.62-6.51-6.3-9.19s-3.18-3.06-6.2-4.15c-4.03-1.45-.6-4.65-3.05-7.19-2.27-2.36-6.98-2.53-9.53-4.6-1.97-1.6-2-4.96-2.54-7.41-.76-3.42-1.09-7.54-2.39-10.81-2.56-6.43-10.38-9.9-16.69-6.44l8.36.3c-1.02-.21-2.29-9.41-3.18-10.75-1.16-1.75-3.12-1.75-5.1-1.97-1.81-.2-10.93-.2-3.6.24l4.76.97c-2.22-1.94-3.61-5.82-5.06-8.36l-9.28-16.16c-1.9-3.31-3.56-7.49-6-10.44-3.01-3.65-9.03-1.62-12.43-1.34,2.77.34,5.54.67,8.3,1.01-2.28-1.66-3.86-5.31-5.4-7.64l-9.27-13.99c-1.72-2.59-3.32-6.18-5.54-8.37-3.56-3.51-9.36-1.66-13.28-.43l9.61.76c-3-1.98-4.99-7.43-6.84-10.5-2.4-3.97-4.59-4.75-9.57-4.74s-6.86,4.71-9.6,8.46c-11.17,15.33-22.35,30.67-33.52,46-2.36,3.23-4.71,6.46-7.07,9.69-.97,1.33-1.88,3.13-3.26,4.03l7.36.1c2.02.31.66.09-.33-.45-.45-.24-.95-.59-1.43-.77-1.57-.58-3.43-.74-5.08-.87-2.98-.24-4.67-.22-6.6,1.87-2.16,2.33-4.06,4.98-6.06,7.44-1.48,1.82-3.03,4.66-5.16,5.66l9.61.76c-2.13-1.06-3.54-3.82-4.97-5.67-1.87-2.41-3.6-2.84-6.74-3.09-3.59-.28-5.61-.44-7.28,2.82-1.55,3.03-3.19,6.09-4.52,9.23l2.52-.5h-.41c2.43.35,4.86.7,7.28,1.05-3.11-2.02-9.66-4.41-13.1-1.79-2.47,1.88-3.01,6-5.75,7.59l9.13.53c-2.7-1-5.4-5.14-7.41-7.18-3.01-3.06-5.61-3.89-10.15-3.86-3.37.02-3.93.98-5.3,3.62l-5.76,11.12c-2.14,4.13-3.89,9.74-7.34,12.9-5.52,5.05-11.98,9.36-17.88,13.97l-11.1,8.68c-1.67,1.31-3.48,3.3-5.54,3.94l9.13.53c-2.46-1.11-3.74-4.43-6.02-5.85-2.42-1.51-9.48-2.7-11.63-.4-3.57,3.83-2.56,11.91-6.58,15.37l8.36.3c-1.78-.49-4.54-4.3-5.86-5.56-2.79-2.66-5.58-5.32-8.33-8.01-4.28-4.18-5.89-6.62-12.46-6.33-4.22.19-6,4.49-8.13,7.72-1.69,2.56-3.33,5.15-4.93,7.76-.87,1.42-3.42,4.31-3.55,6.02-.12,1.59-4.62.46,3.23.68,6.53.18,3.38.46,1.94-.66-1-.77-2.29-1.29-3.37-1.95-3.03-1.86-5.97-3.87-8.87-5.92-3.88-2.74-9.91-5.88-14.71-3.21-2.21,1.23-4.27,3.92-6.12,5.62l-12.39,11.38-14.32,13.15c-2.09,1.92-4.61,5.34-7.41,6.19l9.61.76c-3.66-2.5-3.69-9.18-7.9-11.08-2.4-1.08-7.84-1.69-10.15-.07-.78.55-1.39,1.72-1.97,2.46-3.54,4.52-7.09,9.05-10.63,13.57-2.24,2.86-4.98,8.23-8.25,9.91l9.13.53c-1.3-.53-2.35-2.18-3.29-3.19l-6.55-6.98c-3.9-4.16-7.63-9.13-12.01-12.8-7.3-6.12-20.63,1.05-28.14,3.53l7.36.1c1.79.28.93.46.04-.33-.69-.62-1.55-1.12-2.3-1.66-1.79-1.29-3.53-2.72-5.39-3.9-2.78-1.77-7.83-3.1-11.07-1.95-2.47.88-4.14,3.78-5.82,5.69-2.1,2.4-4.64,6.61-7.5,8.08l8.36.3c.76.21-1.28-1.06-1.74-1.4l-4.87-3.67c-2.67-2.01-5.34-4.61-8.26-6.23s-7.8-1.98-11.09-1.16c-1.39.35-2.76,1.08-4.09,1.6-.81.32-1.68.59-2.47.97-1.1.52-2.51.38-.14.35l7.28,1.06c-2.78-2.39-2.55-7.54-5.96-8.94-3.01-1.24-7.34-.89-10.29.4-5.88,2.56-11.45,6.13-16.98,9.36-.92.54,3.19,1.23,3.4,1.26,1.6.21,4.65.81,6.18-.07h0Z"/>
  </g>
  <g id="Testo">
    <g>
      <path class="cls-1" d="M344.87,69.56c-.22-.37-.33-.9-.33-1.61l-.06-8.19c-.04-.7-.06-1.86-.06-3.49-.07-3.43-.11-7.31-.11-11.62v-2.82c-.33,1.77-.9,4.26-1.72,7.47-.81,3.32-1.38,6.05-1.72,8.19v.33l-.17,1.05c-.07.81-.26,1.64-.55,2.49-.37.89-.94,1.33-1.72,1.33-1.33,0-1.99-1.73-1.99-5.2,0-1.92-.19-3.98-.58-6.17-.39-2.19-1.01-4.9-1.85-8.11l-1.66-6.2-.11,6.64c0,1.99.09,5.79.28,11.4l.11,3.76.11,7.58c0,.77-.28,1.48-.83,2.1-.92,0-1.56-.29-1.91-.86-.35-.57-.53-1.41-.53-2.52l.11-4.54c.11-1.99.17-3.49.17-4.48l-.11-10.68-.11-10.74c0-1.59.04-3.97.11-7.14l1.49-.89c.29.04.59.25.89.64.29.39.63,1.01,1,1.85.92,2.29,2.12,6.86,3.6,13.73.22.96.37,1.75.44,2.38.44,2.14.76,3.76.94,4.87l.83,4.26.39-1.83,1.05-4.54c.59-2.66,1.08-4.98,1.47-6.98.39-1.99.77-4.15,1.13-6.48.41-2.77.66-5.07.78-6.92v-.33c.07-.48.29-.86.66-1.13.37-.28.81-.42,1.33-.42.33,0,.63.15.89.44.26.3.39.61.39.94,0,4.43.17,11.05.5,19.87.18,4.32.31,8.54.39,12.68.07,1.88.11,4.26.11,7.14,0,.85-.22,1.61-.66,2.27s-.94,1-1.49,1c-.37,0-.66-.19-.89-.55Z"/>
      <path class="cls-1" d="M359.43,69.23c-.81-.66-1.51-1.57-2.1-2.71-1.07-1.99-1.86-4.72-2.38-8.19-.37-2.4-.65-5.17-.83-8.3l-.06-2.93v-2.99c-.04-.96-.06-2.12-.06-3.49,0-2.21.09-4.17.28-5.87.15-1.77.52-3.52,1.11-5.26.59-1.51,1.44-2.58,2.55-3.21.66-.29,1.33-.44,1.99-.44,1.96,0,3.51.77,4.65,2.33,1.25,1.73,2.08,3.67,2.49,5.81.59,2.58.92,5.06,1,7.42.15,2.62.22,5.09.22,7.42v3.16c0,.63-.09,1.81-.28,3.54-.15,1.37-.22,2.53-.22,3.49v.22c-.22,1.03-.33,2.25-.33,3.65,0,1.03-.22,2.1-.66,3.21-.44,1.11-1.07,2.05-1.88,2.82-.81.89-1.74,1.33-2.77,1.33s-1.9-.33-2.71-1ZM364.13,65.13c.44-1.22.77-2.7.97-4.46.2-1.75.38-3.74.53-5.95.07-.96.11-2.2.11-3.71l-.06-5.09c-.07-1.99-.3-4.48-.66-7.47-.3-2.55-.85-4.8-1.66-6.75-.37-.92-.83-1.64-1.38-2.16-.55-.52-1.14-.77-1.77-.77-.92,0-1.61.72-2.05,2.16-.55,1.51-.92,3.17-1.11,4.98-.22,1.96-.35,3.82-.39,5.59l-.06,1.83c-.04.52-.06,1.22-.06,2.1v.22c0,2.47.26,5.52.77,9.13.59,4.91,1.46,8.4,2.6,10.46.74,1.29,1.51,1.94,2.33,1.94.74,0,1.36-.68,1.88-2.05Z"/>
      <path class="cls-1" d="M383.67,58.1c-2.58-8.89-4.82-17.07-6.7-24.52v18.16c0,1.55.15,4.19.44,7.92.26,4.06.39,6.68.39,7.86,0,.33-.2.62-.61.86-.41.24-.87.36-1.38.36-.77,0-1.16-.29-1.16-.89l.11-1.6c.07-1.18.11-1.96.11-2.33,0-1.96-.11-5.06-.33-9.3-.22-4.32-.33-6.94-.33-7.86v-7.09c0-1.14.06-2.84.17-5.09.15-1.96.22-3.65.22-5.09v-.33c0-1.84.41-2.77,1.22-2.77.48,0,1.09.81,1.83,2.44,1.22,2.66,2.77,7.42,4.65,14.28,1.07,3.99,2.32,9.12,3.76,15.39-.04-.15.26,1.13.89,3.82l.06.28c0-3.58.04-6.79.11-9.63l.11-9.63v-16.39c.15-.92.74-1.38,1.77-1.38s1.49.72,1.49,2.16v.33c-.22.44-.33.98-.33,1.61,0,2.25-.06,5.65-.17,10.19-.11,4.58-.17,8.01-.17,10.3v16.88c0,.59-.16,1.15-.47,1.69-.31.53-.69.8-1.13.8-.74,0-2.25-3.8-4.54-11.4Z"/>
      <path class="cls-1" d="M402.44,69.01c-.96-3.99-2.27-11.2-3.93-21.65-1.85-11.15-2.97-17.77-3.38-19.87.15-.7.65-1.05,1.5-1.05.63,0,1.4,2.36,2.32,7.09.96,4.76,1.9,10.15,2.82,16.16l1.49,9.8c.59-4.43,1.05-7.75,1.38-9.96.7-5.09,1.22-9.31,1.55-12.65.33-3.34.5-6.5.5-9.49.55-.74,1.22-1.11,1.99-1.11l1.16.61-.83,7.47c-.19,2.29-.65,6.44-1.38,12.46l-.5,3.65c-.41,3.25-.81,6.31-1.22,9.19-.55,4.17-1.07,7.07-1.55,8.69-.22.85-.44,1.27-.66,1.27-.52,0-.94-.2-1.27-.61Z"/>
      <path class="cls-1" d="M415.45,66.96c0-.89.55-1.33,1.66-1.33h.66c.15.04.31.06.5.06.29,0,.51-.09.64-.28.13-.18.19-.52.19-1,0-3.14-.19-7.42-.55-12.84-.33-5.65-.5-9.91-.5-12.79,0-1.03.02-1.97.05-2.82l.06-2.82c0-1.22-.06-2.23-.17-3.04-.41.15-.83.22-1.27.22-.85,0-1.27-.44-1.27-1.33,0-.44.27-.83.8-1.16.54-.33,1.23-.57,2.08-.72,1.55-.26,2.86-.39,3.93-.39.44,0,.82.15,1.13.44.31.3.47.65.47,1.05s-.12.76-.36,1.05c-.24.3-.54.44-.91.44-.22,0-.41-.02-.55-.06h-.44c-.37,0-.64.08-.8.25s-.25.47-.25.91c0,3.91.24,9.3.72,16.16.44,7.2.66,12.6.66,16.22v2.1c.26-.04.63-.06,1.11-.06,1.55,0,2.33.65,2.33,1.94v.33l-1.38.94s-.15,0-.33.03c-.19.02-.55.03-1.11.03-1.25.07-2.03.11-2.33.11-3.17,0-4.76-.55-4.76-1.66Z"/>
      <path class="cls-1" d="M430.67,69.17c-.59-.33-.89-.72-.89-1.16s.11-.8.33-1.08.53-.42.94-.42c.37,0,.9.15,1.6.44.78.3,1.25.44,1.44.44.7,0,1.34-.3,1.91-.91.57-.61,1.02-1.41,1.36-2.41.66-1.85,1-3.51,1-4.98,0-1.59-.25-3.26-.75-5.01-.5-1.75-1.17-3.46-2.02-5.12l-.89-1.77c-.92-1.84-1.63-3.3-2.13-4.37-.5-1.07-.93-2.23-1.3-3.49-.55-1.77-.83-3.49-.83-5.15,0-1.33.23-2.58.69-3.76.46-1.18,1.15-2.18,2.08-2.99.92-.89,2.07-1.33,3.43-1.33.66,0,1.31.19,1.94.58.63.39,1.07.88,1.33,1.47l-.94,1.16c-.96,0-1.68-.18-2.16-.55-.66.07-1.25.4-1.74.97-.5.57-.88,1.23-1.13,1.97-.22.7-.33,1.4-.33,2.1,0,1.4.19,2.83.58,4.29.39,1.46.89,2.83,1.52,4.12l3.88,7.75c.63,1.33,1.13,2.82,1.5,4.48.37,1.66.55,3.32.55,4.98,0,2.44-.59,4.72-1.77,6.86-.63,1.11-1.44,1.98-2.44,2.63-1,.65-2.1.97-3.32.97-1.33,0-2.47-.24-3.43-.72Z"/>
      <path class="cls-1" d="M452.48,69.23c-.81-.66-1.51-1.57-2.1-2.71-1.07-1.99-1.86-4.72-2.38-8.19-.37-2.4-.65-5.17-.83-8.3l-.06-2.93v-2.99c-.04-.96-.06-2.12-.06-3.49,0-2.21.09-4.17.28-5.87.15-1.77.52-3.52,1.11-5.26.59-1.51,1.44-2.58,2.55-3.21.66-.29,1.33-.44,1.99-.44,1.96,0,3.51.77,4.65,2.33,1.25,1.73,2.08,3.67,2.49,5.81.59,2.58.92,5.06,1,7.42.15,2.62.22,5.09.22,7.42v3.16c0,.63-.09,1.81-.28,3.54-.15,1.37-.22,2.53-.22,3.49v.22c-.22,1.03-.33,2.25-.33,3.65,0,1.03-.22,2.1-.66,3.21-.44,1.11-1.07,2.05-1.88,2.82-.81.89-1.73,1.33-2.77,1.33s-1.9-.33-2.71-1ZM457.19,65.13c.44-1.22.77-2.7.97-4.46.2-1.75.38-3.74.53-5.95.07-.96.11-2.2.11-3.71l-.06-5.09c-.07-1.99-.3-4.48-.66-7.47-.3-2.55-.85-4.8-1.66-6.75-.37-.92-.83-1.64-1.38-2.16-.55-.52-1.14-.77-1.77-.77-.92,0-1.61.72-2.05,2.16-.55,1.51-.92,3.17-1.11,4.98-.22,1.96-.35,3.82-.39,5.59l-.06,1.83c-.04.52-.05,1.22-.05,2.1v.22c0,2.47.26,5.52.77,9.13.59,4.91,1.46,8.4,2.6,10.46.74,1.29,1.51,1.94,2.33,1.94.74,0,1.36-.68,1.88-2.05Z"/>
    </g>
    <g>
      <path class="cls-1" d="M332.68,94.79c-.29-.71-.5-1.44-.63-2.18l-.14-.69c-.39-1.95-.65-3.05-.75-3.33h-.24c0,.39,0,.75-.02,1.08v1.12c0,1.82.13,3.24.39,4.26l-.22.55h-.57l-.27-.31.02-1.37c0-1.22-.06-3.08-.18-5.57-.11-2.65-.16-4.51-.16-5.57,0-.65.22-.98.67-.98.73,0,1.34.19,1.81.57s.7.91.7,1.59v1.43c0,.2-.03.44-.1.7-.07.27-.14.48-.22.64l-.39.73-.33.61.1.49.29,1.45c.19,1.05.37,1.9.55,2.55s.39,1.24.65,1.77l.12.25c.14.27.2.49.2.65,0,.14-.04.25-.12.36s-.19.15-.33.15c-.3,0-.57-.33-.82-.98ZM331.75,86.35c.21-.67.32-1.3.32-1.87,0-.44-.05-.84-.16-1.22-.07-.22-.18-.38-.34-.5-.16-.12-.35-.17-.58-.17l-.04.1-.04.18.04,2.41c.03.71.04,1.48.04,2.31.3-.15.55-.56.77-1.23Z"/>
      <path class="cls-1" d="M335.19,94.79c0-.33.21-.49.63-.49h.22l.2.02c.11,0,.18-.03.22-.1.04-.07.06-.19.06-.37,0-.23-.01-.59-.04-1.08-.04-.33-.09-.91-.14-1.75-.12-2.08-.18-3.65-.18-4.71,0-.38,0-.73.02-1.04l.02-1.04c0-.45-.02-.82-.06-1.12-.22.05-.37.08-.47.08-.33,0-.49-.16-.49-.49,0-.16.1-.31.31-.43s.46-.21.78-.27c.54-.11,1.03-.16,1.45-.16.16,0,.3.06.42.17.12.12.17.25.17.4s-.04.28-.13.39c-.09.11-.2.16-.34.16-.08,0-.15,0-.2-.02h-.16c-.14,0-.23.03-.3.09s-.09.17-.09.34c0,1.32.08,3.31.24,5.96.03.49.08,1.21.16,2.16.07.63.1,1.27.1,1.92v.78c.08-.01.22-.02.41-.02.57,0,.86.24.86.71v.12l-.51.35s-.06,0-.13.01-.21.01-.42.01c-.44.03-.71.04-.84.04-1.18,0-1.77-.2-1.77-.61Z"/>
      <path class="cls-1" d="M340.25,95.3c.11-1.13.2-2.86.27-5.2.07-2.43.12-3.9.14-4.39v-.49c.05-1.33.08-2.26.08-2.77,0-.19.08-.34.23-.45.16-.11.34-.16.54-.16.48,0,.99.04,1.53.12.35.05.64.14.85.27.21.12.32.27.32.45,0,.38-.35.57-1.04.57-.26-.14-.61-.2-1.06-.2h-.25v.24c0,.53-.03,1.2-.08,2.02-.07.76-.1,1.45-.1,2.06v.55h.37c.67,0,1,.18,1,.53,0,.18-.07.32-.21.43-.14.11-.32.16-.52.16-.33,0-.59-.03-.8-.1v5.77c0,.6-.18.9-.53.9-.2,0-.45-.1-.73-.31Z"/>
      <path class="cls-1" d="M346.9,95.51c-.26-.14-.47-.35-.63-.62-.33-.57-.54-1.22-.63-1.94-.1-.63-.14-1.37-.14-2.24-.04-1.47-.06-3.26-.06-5.39l-.02-1.57c-.01-.08-.02-.22-.02-.41-.03-.52-.04-.83-.04-.94.12-.29.27-.43.43-.43s.31.12.44.37c.13.25.19.51.19.8v5.55c0,.54.05,1.26.14,2.16.09,1.12.14,1.84.14,2.16,0,1.01.43,1.51,1.29,1.51.98,0,1.47-3.66,1.47-10.98v-1.33s-.02-.09-.02-.16c0-.16.04-.28.11-.36.07-.07.22-.11.44-.11.18,0,.32.05.42.15s.17.22.19.36c.01.08.02.24.02.47,0,.22-.02.56-.06,1.04-.05.39-.08.73-.08,1.02,0,.31-.01.59-.04.84l-.04.86v.16c.01.05.02.12.02.18,0,6.04-.88,9.06-2.63,9.06-.33,0-.62-.07-.88-.21Z"/>
      <path class="cls-1" d="M354.58,95.37c-.31-.14-.58-.33-.8-.56-.18-.19-.34-.47-.49-.84-.15-.37-.26-.72-.33-1.06-.07-.26-.12-.63-.16-1.12-.04-.49-.07-.91-.08-1.27v-2c0-.79.01-1.43.04-1.94.03-.61.12-1.26.27-1.94.12-.61.33-1.15.63-1.61.29-.46.69-.78,1.2-.96.24-.1.53-.14.86-.14.58,0,.88.17.88.51,0,.16-.06.3-.19.4-.13.1-.28.15-.46.15-.08,0-.16,0-.22-.02-.05-.01-.12-.02-.2-.02-.23,0-.44.12-.61.37-.18.24-.33.58-.45,1.02-.22.84-.37,1.76-.45,2.75-.05.93-.08,1.61-.08,2.06s.02,1.09.06,1.9c.05.75.17,1.4.35,1.96.09.33.21.59.34.79.13.2.3.36.5.5.23.15.47.22.71.22.65,0,.98-1.09.98-3.26v-.94c-.1-.04-.25-.06-.47-.06h-.41c-.48,0-.71-.16-.71-.47,0-.19.06-.34.19-.44.13-.1.3-.15.5-.15v.02h.29c1.22,0,1.84.21,1.84.63,0,.12-.03.37-.1.73-.08.33-.12.57-.12.73,0,.23.02.59.06,1.08l.04,1.08c0,.65-.23,1.17-.68,1.54-.46.37-1.01.56-1.66.56-.38,0-.73-.07-1.04-.21Z"/>
      <path class="cls-1" d="M359.27,94.79c0-.33.21-.49.63-.49h.22l.2.02c.11,0,.18-.03.22-.1.04-.07.06-.19.06-.37,0-.23-.01-.59-.04-1.08-.04-.33-.09-.91-.14-1.75-.12-2.08-.18-3.65-.18-4.71,0-.38,0-.73.02-1.04l.02-1.04c0-.45-.02-.82-.06-1.12-.22.05-.37.08-.47.08-.33,0-.49-.16-.49-.49,0-.16.1-.31.31-.43s.46-.21.78-.27c.54-.11,1.03-.16,1.45-.16.16,0,.3.06.42.17.12.12.17.25.17.4s-.04.28-.13.39c-.09.11-.2.16-.34.16-.08,0-.15,0-.2-.02h-.16c-.14,0-.23.03-.3.09s-.09.17-.09.34c0,1.32.08,3.31.24,5.96.03.49.08,1.21.16,2.16.07.63.1,1.27.1,1.92v.78c.08-.01.22-.02.41-.02.57,0,.86.24.86.71v.12l-.51.35s-.06,0-.13.01-.21.01-.42.01c-.44.03-.71.04-.84.04-1.18,0-1.77-.2-1.77-.61Z"/>
      <path class="cls-1" d="M366.04,95.47c-.3-.22-.54-.53-.73-.91-.39-.83-.64-1.73-.73-2.71-.12-.92-.18-1.82-.18-2.67,0-.16,0-.3.02-.41v-.37c0-.07,0-.1-.02-.1v-.37l.02-1.43c.01-.44.07-1.13.16-2.08.07-.65.22-1.29.47-1.9.09-.27.22-.48.37-.62.15-.14.32-.21.51-.21.54,0,1.03.1,1.47.3.44.2.8.47,1.1.83.27.34.5.76.69,1.25s.33,1.02.41,1.58c.08.57.12,1.18.12,1.82v.16c0,.42,0,.8.02,1.14l.02,1.16c0,3.92-.91,5.88-2.73,5.88-.35,0-.68-.11-.98-.34ZM367.61,94.65c.2-.2.36-.47.47-.81.26-.69.41-1.44.47-2.24.07-.69.1-1.29.1-1.8,0-.61-.05-1.41-.14-2.41-.08-1.05-.12-1.83-.12-2.35v-.37c-.03-.52-.2-.97-.52-1.35-.32-.38-.71-.57-1.17-.57s-.77.27-.92.8c-.14.42-.2.97-.2,1.63,0,.26,0,.48.02.65v.55l-.04.94c-.03.29-.04.6-.04.94,0,.73.02,1.46.06,2.18.05,1.02.19,2.01.41,2.98.22,1.01.54,1.51.96,1.51.24,0,.47-.1.67-.3Z"/>
      <path class="cls-1" d="M379.98,99.72c-.76,0-1.29-.16-1.57-.47,0-.27-.02-.58-.06-.94l-.04-.43c-.1-.56-.15-.86-.16-.92l-.1-.49-.08-.45c-.75-.18-1.29-.54-1.63-1.1-.37-.58-.61-1.27-.71-2.06-.1-.67-.14-1.51-.14-2.53,0-.46,0-.88.02-1.24v-1.18c0-.48.04-1.22.12-2.24.1-.94.31-1.81.63-2.61.16-.41.38-.72.64-.94.27-.22.57-.33.91-.33.11.04.27.08.49.12.23.07.37.12.43.14.64.25,1.11.69,1.41,1.33.3.63.48,1.29.55,1.98.07.64.1,1.3.1,1.98l-.02,1.96c-.04.86-.12,1.75-.22,2.67-.08.84-.26,1.68-.53,2.51-.26.76-.61,1.24-1.04,1.43,0,.44.11,1.07.33,1.9.08.24.16.53.22.86.63,0,.94.2.94.59,0,.14-.04.25-.13.35-.09.1-.2.14-.34.14v-.02ZM378.49,95.23c.15,0,.32-.32.51-.96.19-.64.35-1.37.49-2.18.14-.82.2-1.41.2-1.78v-3.55c0-2.79-.67-4.18-2.02-4.18-.23,0-.43.26-.59.77-.26.76-.44,2.03-.53,3.8-.04.54-.06.98-.06,1.31l.02,1.51c.01.35.05.91.1,1.67,0,.14.01.35.04.65.05.67.2,1.37.43,2.12.19.63.46.94.82.94.19-.08.39-.12.59-.12Z"/>
      <path class="cls-1" d="M384.32,95.51c-.26-.14-.47-.35-.63-.62-.33-.57-.54-1.22-.63-1.94-.1-.63-.14-1.37-.14-2.24-.04-1.47-.06-3.26-.06-5.39l-.02-1.57c-.01-.08-.02-.22-.02-.41-.03-.52-.04-.83-.04-.94.12-.29.27-.43.43-.43s.31.12.44.37c.13.25.19.51.19.8v5.55c0,.54.05,1.26.14,2.16.09,1.12.14,1.84.14,2.16,0,1.01.43,1.51,1.29,1.51.98,0,1.47-3.66,1.47-10.98v-1.33s-.02-.09-.02-.16c0-.16.04-.28.11-.36.07-.07.22-.11.44-.11.18,0,.32.05.42.15s.17.22.19.36c.01.08.02.24.02.47,0,.22-.02.56-.06,1.04-.05.39-.08.73-.08,1.02,0,.31-.01.59-.04.84l-.04.86v.16c.01.05.02.12.02.18,0,6.04-.88,9.06-2.63,9.06-.33,0-.62-.07-.88-.21Z"/>
      <path class="cls-1" d="M389.63,94.79c0-.33.21-.49.63-.49h.22l.2.02c.11,0,.18-.03.22-.1.04-.07.06-.19.06-.37,0-.23-.01-.59-.04-1.08-.04-.33-.09-.91-.14-1.75-.12-2.08-.18-3.65-.18-4.71,0-.38,0-.73.02-1.04l.02-1.04c0-.45-.02-.82-.06-1.12-.22.05-.37.08-.47.08-.33,0-.49-.16-.49-.49,0-.16.1-.31.31-.43s.46-.21.78-.27c.54-.11,1.03-.16,1.45-.16.16,0,.3.06.42.17.12.12.17.25.17.4s-.04.28-.13.39c-.09.11-.2.16-.34.16-.08,0-.15,0-.2-.02h-.16c-.14,0-.23.03-.3.09s-.09.17-.09.34c0,1.32.08,3.31.24,5.96.03.49.08,1.21.16,2.16.07.63.1,1.27.1,1.92v.78c.08-.01.22-.02.41-.02.57,0,.86.24.86.71v.12l-.51.35s-.06,0-.13.01-.21.01-.42.01c-.44.03-.71.04-.84.04-1.18,0-1.77-.2-1.77-.61Z"/>
      <path class="cls-1" d="M400.2,95.35c-.08-.09-.14-.24-.18-.46l-.12-.39v-.1c0-.45-.47-1.98-1.4-4.59-.93-2.61-1.66-4.54-2.19-5.79v10.26l.08.14s.04.08.08.14c.04.07.06.14.06.2,0,.18-.06.33-.18.45s-.27.18-.45.18c-.44,0-.65-.41-.65-1.24l-.02-3.49c-.01-1.05-.02-2.22-.02-3.51,0-.44.02-1.07.06-1.9.04-.86.06-1.49.06-1.9,0-.64.24-1.14.73-1.51v.12c.08-.03.14-.04.16-.04.31,0,.71.54,1.18,1.63.38.87.72,1.79,1.03,2.75.31.97.71,2.34,1.21,4.12l.2.73c.31,1.1.55,1.89.71,2.37.27-2.92.41-6.38.41-10.37v-.27c-.01-.08-.02-.17-.02-.27,0-.41.16-.61.49-.61.19,0,.34.08.44.22.1.15.15.34.15.57v1.53c-.03,2.09-.11,4.37-.25,6.81-.14,2.45-.3,3.83-.49,4.14-.39.11-.64.16-.73.16-.16,0-.29-.04-.37-.13Z"/>
      <path class="cls-1" d="M405.91,95.09l-.02-.8c-.01-.23-.02-.49-.02-.78l.02-.69c-.04-.15-.14-1.64-.31-4.47-.16-2.83-.26-4.65-.29-5.45-.79-.03-1.29-.11-1.51-.24-.15-.11-.22-.23-.22-.37,0-.11.07-.21.21-.3s.29-.13.44-.13c.38,0,.84.03,1.39.08.52.07.98.1,1.39.1h.33c.42,0,.63.16.63.49,0,.16-.07.3-.2.4-.14.1-.29.15-.47.15-.12,0-.3-.02-.53-.06l-.41-.08-.02.1-.02.1c0,1.21.12,3.14.35,5.79.22,2.49.33,4.42.33,5.79,0,.16-.07.31-.21.43-.14.12-.3.18-.48.18l-.37-.27Z"/>
      <path class="cls-1" d="M409.23,94.79c0-.33.21-.49.63-.49h.22l.2.02c.11,0,.18-.03.22-.1.04-.07.06-.19.06-.37,0-.23-.01-.59-.04-1.08-.04-.33-.09-.91-.14-1.75-.12-2.08-.18-3.65-.18-4.71,0-.38,0-.73.02-1.04l.02-1.04c0-.45-.02-.82-.06-1.12-.22.05-.37.08-.47.08-.33,0-.49-.16-.49-.49,0-.16.1-.31.31-.43s.46-.21.78-.27c.54-.11,1.03-.16,1.45-.16.16,0,.3.06.42.17.12.12.17.25.17.4s-.04.28-.13.39c-.09.11-.2.16-.34.16-.08,0-.15,0-.2-.02h-.16c-.14,0-.23.03-.29.09-.06.06-.09.17-.09.34,0,1.32.08,3.31.25,5.96.03.49.08,1.21.16,2.16.07.63.1,1.27.1,1.92v.78c.08-.01.22-.02.41-.02.57,0,.86.24.86.71v.12l-.51.35s-.06,0-.13.01c-.08,0-.21.01-.42.01-.44.03-.71.04-.84.04-1.18,0-1.78-.2-1.78-.61Z"/>
      <path class="cls-1" d="M419.8,95.35c-.08-.09-.14-.24-.18-.46l-.12-.39v-.1c0-.45-.47-1.98-1.4-4.59-.93-2.61-1.66-4.54-2.19-5.79v10.26l.08.14s.04.08.08.14c.04.07.06.14.06.2,0,.18-.06.33-.18.45-.12.12-.27.18-.45.18-.44,0-.65-.41-.65-1.24l-.02-3.49c-.01-1.05-.02-2.22-.02-3.51,0-.44.02-1.07.06-1.9.04-.86.06-1.49.06-1.9,0-.64.24-1.14.73-1.51v.12c.08-.03.14-.04.16-.04.31,0,.71.54,1.18,1.63.38.87.72,1.79,1.03,2.75.31.97.71,2.34,1.21,4.12l.2.73c.31,1.1.55,1.89.71,2.37.27-2.92.41-6.38.41-10.37v-.27c-.01-.08-.02-.17-.02-.27,0-.41.16-.61.49-.61.19,0,.34.08.44.22.1.15.15.34.15.57v1.53c-.03,2.09-.11,4.37-.25,6.81-.14,2.45-.3,3.83-.49,4.14-.39.11-.64.16-.73.16-.16,0-.29-.04-.37-.13Z"/>
      <path class="cls-1" d="M425.78,95.47c-.3-.22-.54-.53-.73-.91-.39-.83-.64-1.73-.73-2.71-.12-.92-.18-1.82-.18-2.67,0-.16,0-.3.02-.41v-.37c0-.07,0-.1-.02-.1v-.37l.02-1.43c.01-.44.07-1.13.16-2.08.07-.65.22-1.29.47-1.9.1-.27.22-.48.37-.62.15-.14.32-.21.51-.21.54,0,1.03.1,1.47.3s.8.47,1.1.83c.27.34.5.76.69,1.25.19.5.33,1.02.41,1.58.08.57.12,1.18.12,1.82v.16c0,.42,0,.8.02,1.14l.02,1.16c0,3.92-.91,5.88-2.73,5.88-.35,0-.68-.11-.98-.34ZM427.35,94.65c.2-.2.36-.47.47-.81.26-.69.42-1.44.47-2.24.07-.69.1-1.29.1-1.8,0-.61-.05-1.41-.14-2.41-.08-1.05-.12-1.83-.12-2.35v-.37c-.03-.52-.2-.97-.52-1.35s-.71-.57-1.17-.57-.77.27-.92.8c-.14.42-.2.97-.2,1.63,0,.26,0,.48.02.65v.55l-.04.94c-.03.29-.04.6-.04.94,0,.73.02,1.46.06,2.18.05,1.02.19,2.01.41,2.98.22,1.01.54,1.51.96,1.51.25,0,.47-.1.67-.3Z"/>
      <path class="cls-1" d="M435.2,95.44c-.17-.14-.27-.31-.3-.53l.22-.35c.08,0,.21.03.39.08.2.04.36.06.47.06.24,0,.47-.11.66-.33.2-.22.34-.5.44-.86.18-.65.27-1.24.27-1.75,0-.9-.29-1.84-.86-2.84l-.22-.39c-.26-.45-.48-.85-.65-1.2-.18-.35-.33-.73-.45-1.14-.16-.53-.25-1.06-.25-1.59,0-.6.14-1.22.41-1.88.14-.31.33-.57.58-.77.25-.2.53-.3.85-.3.24,0,.47.08.68.23.21.16.32.34.32.56,0,.12-.05.22-.14.29-.09.07-.21.1-.35.1-.15,0-.29-.04-.43-.12-.3.01-.54.28-.71.8-.15.48-.22.87-.22,1.18,0,.4.06.79.18,1.19.12.4.28.77.47,1.09l.45.82.71,1.35c.19.38.34.82.46,1.33.12.5.17,1.01.17,1.53,0,.83-.19,1.62-.57,2.37-.19.38-.46.69-.81.92-.35.23-.73.35-1.15.35v.06c-.25-.04-.45-.13-.62-.27Z"/>
      <path class="cls-1" d="M440.95,95.5c-.14-.12-.22-.27-.24-.45v-.94c-.01-.12-.02-.27-.02-.43,0-.29-.02-.72-.06-1.31l-.04-1.31c0-.67.02-1.66.06-2.98.05-1.18.08-2.18.08-2.98,0-.19-.02-.48-.06-.86-.04-.39-.06-.68-.06-.86,0-.97.29-1.45.86-1.45.45,0,.97.09,1.56.27.59.18.89.39.89.63,0,.14-.06.26-.17.38-.12.12-.25.21-.42.28-.57-.2-1.09-.34-1.55-.41.01.2.02.5.02.88,0,.54,0,1.03-.02,1.47-.04.65-.06,1.14-.06,1.47l.06.33.33-.02c.11-.01.25-.02.41-.02.65,0,.98.19.98.57,0,.15-.06.28-.18.38-.12.1-.28.15-.47.15-.25,0-.44-.01-.57-.04h-.51c.03.35.04.87.04,1.55s0,1.29-.02,1.84c-.04.83-.06,1.45-.06,1.86,0,.76.01,1.14.04,1.14l.67-.02c.23-.01.51-.02.84-.02.52,0,.78.16.78.49,0,.19-.08.34-.25.44-.17.1-.38.15-.62.15h-1.73c-.18,0-.34-.06-.48-.18Z"/>
      <path class="cls-1" d="M447.61,95.5c-.22.14-.45.2-.69.2-.16,0-.3-.07-.42-.21-.12-.14-.17-.3-.17-.46,0-1.14.05-2.67.14-4.57.08-2.03.12-3.54.12-4.55v-.14c-.08-.86-.12-1.5-.12-1.92,0-1.29.24-1.94.71-1.94.14,0,.25.05.36.15.1.1.15.22.15.36,0,.16-.02.42-.06.78-.04.34-.06.6-.06.78,0,.91,0,1.73.02,2.47.01.72.02,1.54.02,2.45-.07.2-.1.49-.1.86v.25l-.04,1.61c-.03.48-.04,1.02-.04,1.63,0,.94.22,1.41.67,1.41.03,0,.07,0,.13-.01.06,0,.15-.01.25-.01.12-.01.28-.02.47-.02.74,0,1.1.2,1.1.61,0,.14-.06.25-.18.35-.12.09-.27.16-.45.18-.49-.16-1.09-.25-1.82-.25Z"/>
      <path class="cls-1" d="M453.08,95.5c-.22.14-.45.2-.69.2-.16,0-.3-.07-.42-.21-.12-.14-.17-.3-.17-.46,0-1.14.05-2.67.14-4.57.08-2.03.12-3.54.12-4.55v-.14c-.08-.86-.12-1.5-.12-1.92,0-1.29.24-1.94.71-1.94.14,0,.25.05.36.15.1.1.15.22.15.36,0,.16-.02.42-.06.78-.04.34-.06.6-.06.78,0,.91,0,1.73.02,2.47.01.72.02,1.54.02,2.45-.07.2-.1.49-.1.86v.25l-.04,1.61c-.03.48-.04,1.02-.04,1.63,0,.94.22,1.41.67,1.41.03,0,.07,0,.13-.01.06,0,.15-.01.25-.01.12-.01.28-.02.47-.02.74,0,1.1.2,1.1.61,0,.14-.06.25-.18.35-.12.09-.27.16-.45.18-.49-.16-1.09-.25-1.82-.25Z"/>
      <path class="cls-1" d="M460.55,95.46c-.15-.1-.22-.27-.22-.53,0-.41-.07-1.1-.2-2.08l-.08-.43-2.02-.31c-.08.31-.2.95-.35,1.9-.08.67-.21,1.11-.39,1.33-.09.12-.23.18-.41.18-.16,0-.31-.05-.45-.15-.14-.1-.2-.23-.2-.38l.04-.1.02-.08c.9-3.5,1.58-6.94,2.04-10.34,0-.05,0-.15.02-.28.01-.13.03-.32.04-.56.04-.5.08-.9.13-1.2.05-.3.13-.52.23-.67h.69c.19,0,.35.04.49.13s.2.21.2.38c0,1.03.14,2.57.43,4.61.27,2.09.41,3.56.41,4.41,0,.08.03.29.1.63.07.31.1.52.1.61s.07.5.2,1.22c.12.65.18,1.07.18,1.26v.02c0,.3-.11.49-.33.57-.31,0-.54-.05-.69-.14ZM459.83,90.93c0-1.22-.11-2.79-.33-4.69l-.2-2.12c-.58,3.2-.99,5.61-1.2,7.24.2.14.8.24,1.79.33-.04-.2-.06-.46-.06-.75Z"/>
    </g>
  </g>
</svg>