<?xml version="1.0" encoding="UTF-8"?>
<svg xmlns="http://www.w3.org/2000/svg" viewBox="0 0 1167.02 470.92">
  <defs>
    <style>
      .cls-1 {
        fill: #f5efed;
      }
    </style>
  </defs>
  <g id="nuv-sx1">
    <path class="cls-1" d="M608.04,237.19c-10.88,0-21.27,2.05-30.83,5.76-11.27-23.54-35.32-39.8-63.16-39.8-1.86,0-3.7.09-5.53.24.66-4.9,1-9.89,1-14.97,0-61.53-49.88-111.41-111.41-111.41s-111.41,49.88-111.41,111.41c0,.27,0,.54.01.82-4.02-.53-8.12-.82-12.29-.82-43.93,0-80.69,30.68-90.04,71.78-13.18-10.79-30.03-17.26-48.39-17.26-37.59,0-68.81,27.12-75.24,62.85-2.98-.54-6.05-.83-9.19-.83-28.48,0-51.57,23.09-51.57,51.57s23.09,51.57,51.57,51.57h556.47c47.19,0,85.45-38.26,85.45-85.45s-38.26-85.45-85.45-85.45Z"/>
  </g>
  <g id="nuv-sx2">
    <path class="cls-1" d="M85.68,80.59c4.13,0,8.07.78,11.7,2.19,4.28-8.93,13.4-15.11,23.97-15.11.71,0,1.4.04,2.1.09-.25-1.86-.38-3.76-.38-5.68,0-23.35,18.93-42.28,42.28-42.28s42.28,18.93,42.28,42.28c0,.1,0,.21,0,.31,1.53-.2,3.08-.31,4.66-.31,16.67,0,30.63,11.64,34.17,27.24,5-4.09,11.4-6.55,18.37-6.55,14.26,0,26.12,10.29,28.56,23.85,1.13-.2,2.3-.32,3.49-.32,10.81,0,19.57,8.76,19.57,19.57s-8.76,19.57-19.57,19.57H85.68c-17.91,0-32.43-14.52-32.43-32.43s14.52-32.43,32.43-32.43Z"/>
  </g>
  <g id="nuv-dx1">
    <path class="cls-1" d="M596.27,150.36c10.21,0,19.96,1.93,28.94,5.4,10.58-22.1,33.15-37.36,59.29-37.36,1.75,0,3.47.09,5.19.22-.62-4.6-.94-9.29-.94-14.05,0-57.75,46.82-104.57,104.57-104.57s104.57,46.82,104.57,104.57c0,.26,0,.51,0,.77,3.77-.5,7.62-.77,11.53-.77,41.24,0,75.75,28.8,84.52,67.38,12.37-10.12,28.19-16.2,45.42-16.2,35.28,0,64.59,25.46,70.63,59,2.8-.5,5.68-.78,8.62-.78,26.74,0,48.41,21.67,48.41,48.41s-21.67,48.41-48.41,48.41h-522.34c-44.3,0-80.21-35.91-80.21-80.21s35.91-80.21,80.21-80.21Z"/>
  </g>
  <g id="nuv-dx2">
    <path class="cls-1" d="M976.22,406.06c-4.13,0-8.07.78-11.7,2.19-4.28-8.93-13.4-15.11-23.97-15.11-.71,0-1.4.04-2.1.09.25-1.86.38-3.76.38-5.68,0-23.35-18.93-42.28-42.28-42.28s-42.28,18.93-42.28,42.28c0,.1,0,.21,0,.31-1.53-.2-3.08-.31-4.66-.31-16.67,0-30.63,11.64-34.17,27.24-5-4.09-11.4-6.55-18.37-6.55-14.26,0-26.12,10.29-28.56,23.85-1.13-.2-2.3-.32-3.49-.32-10.81,0-19.57,8.76-19.57,19.57s8.76,19.57,19.57,19.57h211.19c17.91,0,32.43-14.52,32.43-32.43s-14.52-32.43-32.43-32.43Z"/>
  </g>
</svg>